<svg xmlns="http://www.w3.org/2000/svg" width="88" height="40" viewBox="0 0 88 40">
  <g id="Group_442" data-name="Group 442" transform="translate(-1620.5 -97)">
    <g id="Path_77" data-name="Path 77" transform="translate(1620.5 97)" fill="none">
      <path d="M10.776,0H77.224C83.176,0,88,5.373,88,12V28c0,6.627-4.824,12-10.776,12H10.776C4.824,40,0,34.627,0,28V12C0,5.373,4.824,0,10.776,0Z" stroke="none"/>
      <path d="M 10.77550506591797 1 C 5.385269165039062 1 1 5.934577941894531 1 12 L 1 28 C 1 34.06542205810547 5.385269165039062 39 10.77550506591797 39 L 77.22447967529297 39 C 82.61471557617188 39 87 34.06542205810547 87 28 L 87 12 C 87 5.934577941894531 82.61471557617188 1 77.22447967529297 1 L 10.77550506591797 1 M 10.77550506591797 0 L 77.22447967529297 0 C 83.17563629150391 0 88 5.372577667236328 88 12 L 88 28 C 88 34.62742233276367 83.17563629150391 40 77.22447967529297 40 L 10.77550506591797 40 C 4.824356079101562 40 0 34.62742233276367 0 28 L 0 12 C 0 5.372577667236328 4.824356079101562 0 10.77550506591797 0 Z" stroke="none" fill="#2e4057"/>
    </g>
    <circle id="Ellipse_32" data-name="Ellipse 32" cx="10" cy="10" r="10" transform="translate(1688 117)" fill="#2e4057"/>
    <path id="Path_78" data-name="Path 78" d="M83.5,14.333h0V41.245H55Z" transform="translate(1625 95.755)" fill="#2e4057"/>
    <text id="_" data-name="%" transform="translate(1693 132)" fill="#fff" font-size="15" font-family="Helvetica"><tspan x="0" y="0">%</tspan></text>
  </g>
</svg>
