<svg xmlns="http://www.w3.org/2000/svg" width="16.93" height="16.273" viewBox="0 0 16.93 16.273">
  <g id="Group_123" data-name="Group 123" transform="translate(-517.74 -614.727)">
    <g id="pie-chart" transform="translate(517.74 614.726)">
      <path id="Path_44" data-name="Path 44" d="M33.77,8.137A4.636,4.636,0,0,1,29,12.626v3.648a8.4,8.4,0,0,0,8.645-8.137A8.4,8.4,0,0,0,29,0V3.648A4.636,4.636,0,0,1,33.77,8.137Z" transform="translate(-20.715)" fill="#5c6be6"/>
      <path id="Path_45" data-name="Path 45" d="M14.427,45.586a8.242,8.242,0,0,0,5.933-2.532L17.7,40.314a4.534,4.534,0,0,1-6.547,0l-2.659,2.74A8.242,8.242,0,0,0,14.427,45.586Z" transform="translate(-5.962 -29.313)" fill="#ee5c4d"/>
      <g id="Group_44" data-name="Group 44">
        <path id="Path_46" data-name="Path 46" d="M3.875,8.05a4.614,4.614,0,0,1,4.77-4.441V0C3.871,0,0,3.6,0,8.05a7.757,7.757,0,0,0,2.532,5.692l2.74-2.551A4.281,4.281,0,0,1,3.875,8.05Z" fill="#32f585"/>
      </g>
    </g>
  </g>
</svg>
